<svg id="Gruppo_1" data-name="Gruppo 1" xmlns="http://www.w3.org/2000/svg" width="1290" height="201" viewBox="0 0 1290 201">
  <defs>
    <style>
      .cls-1 {
        fill: none;
        stroke-width: 15px;
      }

      .cls-1, .cls-2 {
        stroke: #e61313;
        stroke-linecap: round;
        stroke-linejoin: round;
      }

      .cls-1, .cls-2, .cls-3, .cls-4 {
        fill-rule: evenodd;
      }

      .cls-2, .cls-4 {
        fill: #e61313;
      }

      .cls-2 {
        stroke-width: 3px;
      }
    </style>
  </defs>
  <path id="Forma_2" data-name="Forma 2" class="cls-1" d="M381,38l25-21,22,21"/>
  <path id="Forma_1" data-name="Forma 1" class="cls-2" d="M106,134l94,43S395.136,276.779,409.44,46.9c0.264-4.243-6.77-7.29-8.962-.831C398.16,52.9,399.02,254.124,202,170,50.725,105.409,106,134,106,134Z"/>
  <path id="Ou_ckRates" data-name="Ou ckRates" class="cls-3" d="M78.138,6.23A77.456,77.456,0,0,0,48.231,23.815a75.832,75.832,0,0,0-18.722,29.01,102.564,102.564,0,0,0-6.34,35.829,97.041,97.041,0,0,0,5.264,32.121A65.181,65.181,0,0,0,45.54,147.093a73.84,73.84,0,0,0,28.651,16.569,114.424,114.424,0,0,0,35.111,5.383,113.6,113.6,0,0,0,36.726-5.922,75.606,75.606,0,0,0,29.429-17.765,72.6,72.6,0,0,0,17.705-28.83,109.823,109.823,0,0,0,5.742-35.41,96.192,96.192,0,0,0-5.144-31.941,68.474,68.474,0,0,0-17.287-26.558A70.975,70.975,0,0,0,148.42,5.632,108.64,108.64,0,0,0,114.805.488,117,117,0,0,0,78.138,6.23Zm60.951,14.412a52.023,52.023,0,0,1,20.876,13.208,54.243,54.243,0,0,1,12.8,21.933,90.02,90.02,0,0,1,4.007,26.952,91.914,91.914,0,0,1-4.426,28.568,60.156,60.156,0,0,1-13.578,23.247A54.479,54.479,0,0,1,137,148.592a79.507,79.507,0,0,1-26.5,4.423,81.938,81.938,0,0,1-25.96-4.124,55.5,55.5,0,0,1-21.294-12.609,53.976,53.976,0,0,1-13.4-21.216A78.442,78.442,0,0,1,45.3,88.471a89.66,89.66,0,0,1,4.606-28.685A64.478,64.478,0,0,1,64.022,35.881,56.3,56.3,0,0,1,86.333,21.12a79.667,79.667,0,0,1,27.156-4.6A78.759,78.759,0,0,1,139.089,20.642ZM337.8,110.666q2.266-43.9,3.939-65.437-6.469.121-10.06,0.12l-11.137-.12q-0.358,22.251-1.309,43.784-0.837,17.706-1.676,24.524a63.024,63.024,0,0,1-3.83,15.432,41.56,41.56,0,0,1-8.617,13.279,35.113,35.113,0,0,1-11.731,7.417,47.185,47.185,0,0,1-17,3.11,45.346,45.346,0,0,1-18.015-3.409q-7.961-3.41-11.371-9.69t-3.411-16.808q0-6.936,1.514-31.821t3.21-45.818q-6.954.121-10.307,0.12l-11.027-.12q0,6.819-.117,11.245l-0.356,12.8-2.011,39.837q-0.474,8.254-.71,13.4t-0.236,7.3q0,14.117,5.324,22.251t15.669,12.561q10.347,4.424,24.943,4.426a74.674,74.674,0,0,0,12.621-1.017,69.219,69.219,0,0,0,10.346-2.512,42.219,42.219,0,0,0,7.716-3.41,38.187,38.187,0,0,0,6.4-4.725,36.01,36.01,0,0,0,5.2-5.742,78.579,78.579,0,0,0,4.965-8.314l-0.6,23.088q5.148-.239,9.935-0.239,4.188,0,10.056.239,0.359-31.583,1.671-55.747h0Zm151.441,43.186a49.293,49.293,0,0,1-23.507-5.563,30.814,30.814,0,0,1-14.654-15.731q-4.19-10.167-4.188-23.686a76.559,76.559,0,0,1,2.573-19.739A43.141,43.141,0,0,1,457.9,72.385,39.9,39.9,0,0,1,472.076,61.5a44.567,44.567,0,0,1,18.842-3.828A77.4,77.4,0,0,1,504.2,58.927a151.21,151.21,0,0,1,18.542,4.845q-0.6-6.578-1.316-16.748a121.744,121.744,0,0,0-33.137-4.546q-23.09,0-36.487,8.972A51.824,51.824,0,0,0,432.18,76.213a90.216,90.216,0,0,0-6.221,33.376,79.769,79.769,0,0,0,3.829,24.823,47.045,47.045,0,0,0,31.043,31.164,78.66,78.66,0,0,0,23.866,3.469q6.1,0,14.176-.718a121.737,121.737,0,0,0,16.808-2.751q0.718-5.025,1.735-10.229t1.256-7.118q-16.751,5.625-29.429,5.623h0Zm67,12.322q2.991,0,10.415.239,0.359-32.9,2.566-88.465T572.983,3.12q-7.182.121-10.415,0.12l-11.133-.12q0,5.383-.119,16.748L550,71.906,547.5,133.994l-2.028,32.419q7.42-.239,10.774-0.239h0Zm19.976-59.388,18.557,22.628q8.619,10.419,11.133,13.651l17.6,23.348q7.761-.239,12.3-0.239t11.942,0.239Q606.188,117.8,591.7,98.883l51.747-53.654q-8.132.121-12.793,0.12-3.707,0-11.957-.12-11.37,13.862-24.171,27.485L570.112,98.763Zm104.926,59.388,18.561,0.239,2.254-89.722L704.1,27.524q9.09,0,15.312-.12t9.81-.12a100.624,100.624,0,0,1,12.92.837,26.725,26.725,0,0,1,11.125,3.828,17.257,17.257,0,0,1,6.64,7.3,22.138,22.138,0,0,1,1.973,9.331,27.442,27.442,0,0,1-4.549,15.253,26.749,26.749,0,0,1-13.051,10.348,50.835,50.835,0,0,1-18.8,3.35,83.508,83.508,0,0,1-14.606-1.436q3.822,8.137,5.972,12.2l14.451,29.07q4.9,9.932,8.361,17.227l13.256,31.821q14.512-.239,20.274-0.239,4.677,0,19.312.239-4.785-9.21-5.742-10.886l-12.082-21.174q-11.008-19.5-14.954-27.037l-8.135-15.791q8.851-2.392,14.117-4.067a49.609,49.609,0,0,0,9.39-4.008,42.232,42.232,0,0,0,8.315-6.34,41.126,41.126,0,0,0,7.237-9.331,45.628,45.628,0,0,0,4.606-11.365,50.993,50.993,0,0,0,1.555-12.74,40.233,40.233,0,0,0-4.127-18.662,36.342,36.342,0,0,0-12.617-13.638A46.581,46.581,0,0,0,760.631,4.2a177.958,177.958,0,0,0-24.814-1.555q-11.126,0-21.109.359t-20.391.359q-9.687,0-24.038-.239,0,35.053-1.8,81.348t-5.411,81.946q13.649-.239,18.081-0.239h0ZM873.048,61.02a42.72,42.72,0,0,1,10.716,1.256,16.166,16.166,0,0,1,7.9,4.486,11.071,11.071,0,0,1,3.053,7.9,11.29,11.29,0,0,1-1.019,4.665,14.276,14.276,0,0,1-3.172,4.367,17.458,17.458,0,0,1-5.086,3.409,57.773,57.773,0,0,1-7.841,2.692q-4.907,1.377-9.457,2.333a240.06,240.06,0,0,0-27.531,7.357q-10.413,3.65-15.92,7.536a46.178,46.178,0,0,0-8.978,8.075,30.332,30.332,0,0,0-5.267,9.212,30.021,30.021,0,0,0-1.795,10.168,38.274,38.274,0,0,0,4.606,17.825,27.528,27.528,0,0,0,14.3,12.92q9.69,4.065,24.763,4.067,4.306,0,9.331-.359t13.518-1.794a207.646,207.646,0,0,1,5.862-20.337,68.806,68.806,0,0,1-11.425,2.991,57.8,57.8,0,0,1-8.075.6,33.813,33.813,0,0,1-10.407-1.436,15.292,15.292,0,0,1-7.358-5.084,13.415,13.415,0,0,1-2.93-8.673,14.738,14.738,0,0,1,1.136-5.8,15.909,15.909,0,0,1,3.652-5.144,27.44,27.44,0,0,1,6.167-4.426,53.879,53.879,0,0,1,8.2-3.529q4.548-1.554,12.092-3.649t10.537-3.11a42.678,42.678,0,0,0,5.388-2.214,74.751,74.751,0,0,0,6.945-4.187l-1.574,29.788q-0.968,19.022-2.541,33.5,9.816-.239,17.122-0.239,7.661,0,16.761.239,0.357-29.787,2.258-57.721t1.9-34.752q0-12.561-6.22-19.26t-17.227-9.75a90.3,90.3,0,0,0-24.165-3.051,194.116,194.116,0,0,0-24.045,1.555,278.056,278.056,0,0,0-28.711,5.383q-1.077,7.06-1.5,10.527t-2.093,12.083Q851.261,61.02,873.048,61.02h0ZM1017.7,144.042a43.541,43.541,0,0,1-6.28.479,16.9,16.9,0,0,1-7.66-1.794,10.664,10.664,0,0,1-5.2-5.862q-1.615-4.067-1.615-11.485,0-7.654,2.516-56.345h30.511q0-6.937.83-23.088h-30.41q0.135-14.114.98-30.266-12.7,3.112-17.132,3.948L970.1,22.38q-0.713,16.629-1.426,23.567H950.65q-0.48,15.912-1.075,23.088h17.217L964.048,118.8q-0.836,14.355-.955,16.987t-0.119,4.187a42.879,42.879,0,0,0,1.615,11.784,21.41,21.41,0,0,0,6.16,9.929,25.087,25.087,0,0,0,11.545,5.921,68.346,68.346,0,0,0,15.851,1.675,104.526,104.526,0,0,0,10.765-.6,144.536,144.536,0,0,0,15.79-2.871q3.12-17.824,4.55-24.4Q1020.985,143.564,1017.7,144.042Zm113.65,1.316a97.956,97.956,0,0,1-17.88,1.795,49.257,49.257,0,0,1-14.36-2.213,33.2,33.2,0,0,1-12.56-6.879,30.3,30.3,0,0,1-8.01-11.365,38.256,38.256,0,0,1-2.76-14.714q0-2.63.24-7.058l87.69-.12a58.706,58.706,0,0,0,1.2-11.581,56.449,56.449,0,0,0-4.01-21.671,46.6,46.6,0,0,0-11.48-16.657,43.959,43.959,0,0,0-18.49-9.97,86.666,86.666,0,0,0-23.21-3.045,83.727,83.727,0,0,0-24.76,3.645,53.081,53.081,0,0,0-21.11,12.43,58.839,58.839,0,0,0-14.42,22.589,80.98,80.98,0,0,0-5.14,28.5,73.032,73.032,0,0,0,4.42,25.339,49.735,49.735,0,0,0,13.76,20.376,50.721,50.721,0,0,0,21.71,11.416,115.763,115.763,0,0,0,28.06,3.106,165.634,165.634,0,0,0,17.82-.957q8.85-.959,21.77-3.708,2.88-18.3,4.43-25.362A187.365,187.365,0,0,1,1131.35,145.358Zm-51.98-63.543a32.823,32.823,0,0,1,3.65-7.09,27.267,27.267,0,0,1,6.4-6.671,29.574,29.574,0,0,1,8.67-4.527,31.126,31.126,0,0,1,9.75-1.55,32.817,32.817,0,0,1,8.08.953,23.41,23.41,0,0,1,6.64,2.74,19.866,19.866,0,0,1,5.02,4.467,20.92,20.92,0,0,1,3.41,6.194,30.761,30.761,0,0,1,1.62,6.254,71.538,71.538,0,0,1,.36,8.46l-55.99-.12A74.344,74.344,0,0,1,1079.37,81.815Zm122.38,86.333a163.261,163.261,0,0,0,17.47,1.136,68.451,68.451,0,0,0,24.88-4.306q11.13-4.308,16.63-11.963a27.894,27.894,0,0,0,5.5-16.629,31.094,31.094,0,0,0-1.91-10.647,36.205,36.205,0,0,0-5.5-9.869,58.721,58.721,0,0,0-9.16-9.152q-5.55-4.545-12.98-10.168-7.41-5.622-9.75-7.537a30.479,30.479,0,0,1-4.12-4.067,13.881,13.881,0,0,1-2.51-4.127,11.609,11.609,0,0,1-.72-4.008,9.714,9.714,0,0,1,2.27-6.281c1.51-1.873,4.01-3.269,7.48-4.187a47.81,47.81,0,0,1,12.14-1.376,71.012,71.012,0,0,1,26.68,5.623l-1.56-25a205.57,205.57,0,0,0-36.13-3.709q-13.755,0-23.92,3.649t-15.49,11.544a28.694,28.694,0,0,0-3.59,26.5,33.728,33.728,0,0,0,5.08,9.211,56.2,56.2,0,0,0,8.26,8.554q4.9,4.19,14.23,11.484l6.46,5.144q3.345,2.513,5.15,4.128a26.945,26.945,0,0,1,2.81,2.871,18.231,18.231,0,0,1,1.79,2.691,10.869,10.869,0,0,1,1.08,2.752,12.923,12.923,0,0,1,.3,2.871,11.2,11.2,0,0,1-2.28,6.639,13.684,13.684,0,0,1-6.93,4.785,35.42,35.42,0,0,1-11.49,1.615,67.559,67.559,0,0,1-14.95-1.854,131.614,131.614,0,0,1-19.86-6.639l2.63,26.318A172.93,172.93,0,0,0,1201.75,168.148Zm-520.6-1.974,18.561,0.239,2.254-89.722L704.1,27.524q9.09,0,15.312-.12t9.81-.12a100.624,100.624,0,0,1,12.92.837,26.725,26.725,0,0,1,11.125,3.828,17.257,17.257,0,0,1,6.64,7.3,22.138,22.138,0,0,1,1.973,9.331,27.442,27.442,0,0,1-4.549,15.253,26.749,26.749,0,0,1-13.051,10.348,50.835,50.835,0,0,1-18.8,3.35,83.508,83.508,0,0,1-14.606-1.436q3.822,8.137,5.972,12.2l14.451,29.07q4.9,9.932,8.361,17.227l13.256,31.821q14.512-.239,20.274-0.239,4.677,0,19.312.239-4.785-9.21-5.742-10.886l-12.082-21.174q-11.008-19.5-14.954-27.037l-8.135-15.791q8.851-2.392,14.117-4.067a49.609,49.609,0,0,0,9.39-4.008,42.232,42.232,0,0,0,8.315-6.34,41.126,41.126,0,0,0,7.237-9.331,45.628,45.628,0,0,0,4.606-11.365,50.993,50.993,0,0,0,1.555-12.74,40.233,40.233,0,0,0-4.127-18.662,36.342,36.342,0,0,0-12.617-13.638A46.581,46.581,0,0,0,760.631,4.2a177.958,177.958,0,0,0-24.814-1.555q-11.126,0-21.109.359t-20.391.359q-9.687,0-24.038-.239,0,35.053-1.8,81.348t-5.411,81.946q13.649-.239,18.081-0.239h0ZM873.048,61.02a42.72,42.72,0,0,1,10.716,1.256,16.166,16.166,0,0,1,7.9,4.486,11.071,11.071,0,0,1,3.053,7.9,11.29,11.29,0,0,1-1.019,4.665,14.276,14.276,0,0,1-3.172,4.367,17.458,17.458,0,0,1-5.086,3.409,57.773,57.773,0,0,1-7.841,2.692q-4.907,1.377-9.457,2.333a240.06,240.06,0,0,0-27.531,7.357q-10.413,3.65-15.92,7.536a46.178,46.178,0,0,0-8.978,8.075,30.332,30.332,0,0,0-5.267,9.212,30.021,30.021,0,0,0-1.795,10.168,38.274,38.274,0,0,0,4.606,17.825,27.528,27.528,0,0,0,14.3,12.92q9.69,4.065,24.763,4.067,4.306,0,9.331-.359t13.518-1.794a207.646,207.646,0,0,1,5.862-20.337,68.806,68.806,0,0,1-11.425,2.991,57.8,57.8,0,0,1-8.075.6,33.813,33.813,0,0,1-10.407-1.436,15.292,15.292,0,0,1-7.358-5.084,13.415,13.415,0,0,1-2.93-8.673,14.738,14.738,0,0,1,1.136-5.8,15.909,15.909,0,0,1,3.652-5.144,27.44,27.44,0,0,1,6.167-4.426,53.879,53.879,0,0,1,8.2-3.529q4.548-1.554,12.092-3.649t10.537-3.11a42.678,42.678,0,0,0,5.388-2.214,74.751,74.751,0,0,0,6.945-4.187l-1.574,29.788q-0.968,19.022-2.541,33.5,9.816-.239,17.122-0.239,7.661,0,16.761.239,0.357-29.787,2.258-57.721t1.9-34.752q0-12.561-6.22-19.26t-17.227-9.75a90.3,90.3,0,0,0-24.165-3.051,194.116,194.116,0,0,0-24.045,1.555,278.056,278.056,0,0,0-28.711,5.383q-1.077,7.06-1.5,10.527t-2.093,12.083Q851.261,61.02,873.048,61.02h0ZM1017.7,144.042a43.541,43.541,0,0,1-6.28.479,16.9,16.9,0,0,1-7.66-1.794,10.664,10.664,0,0,1-5.2-5.862q-1.615-4.067-1.615-11.485,0-7.654,2.516-56.345h30.511q0-6.937.83-23.088h-30.41q0.135-14.114.98-30.266-12.7,3.112-17.132,3.948L970.1,22.38q-0.713,16.629-1.426,23.567H950.65q-0.48,15.912-1.075,23.088h17.217L964.048,118.8q-0.836,14.355-.955,16.987t-0.119,4.187a42.879,42.879,0,0,0,1.615,11.784,21.41,21.41,0,0,0,6.16,9.929,25.087,25.087,0,0,0,11.545,5.921,68.346,68.346,0,0,0,15.851,1.675,104.526,104.526,0,0,0,10.765-.6,144.536,144.536,0,0,0,15.79-2.871q3.12-17.824,4.55-24.4Q1020.985,143.564,1017.7,144.042Zm113.65,1.316a97.956,97.956,0,0,1-17.88,1.795,49.257,49.257,0,0,1-14.36-2.213,33.2,33.2,0,0,1-12.56-6.879,30.3,30.3,0,0,1-8.01-11.365,38.256,38.256,0,0,1-2.76-14.714q0-2.63.24-7.058l87.69-.12a58.706,58.706,0,0,0,1.2-11.581,56.449,56.449,0,0,0-4.01-21.671,46.6,46.6,0,0,0-11.48-16.657,43.959,43.959,0,0,0-18.49-9.97,86.666,86.666,0,0,0-23.21-3.045,83.727,83.727,0,0,0-24.76,3.645,53.081,53.081,0,0,0-21.11,12.43,58.839,58.839,0,0,0-14.42,22.589,80.98,80.98,0,0,0-5.14,28.5,73.032,73.032,0,0,0,4.42,25.339,49.735,49.735,0,0,0,13.76,20.376,50.721,50.721,0,0,0,21.71,11.416,115.763,115.763,0,0,0,28.06,3.106,165.634,165.634,0,0,0,17.82-.957q8.85-.959,21.77-3.708,2.88-18.3,4.43-25.362A187.365,187.365,0,0,1,1131.35,145.358Zm-51.98-63.543a32.823,32.823,0,0,1,3.65-7.09,27.267,27.267,0,0,1,6.4-6.671,29.574,29.574,0,0,1,8.67-4.527,31.126,31.126,0,0,1,9.75-1.55,32.817,32.817,0,0,1,8.08.953,23.41,23.41,0,0,1,6.64,2.74,19.866,19.866,0,0,1,5.02,4.467,20.92,20.92,0,0,1,3.41,6.194,30.761,30.761,0,0,1,1.62,6.254,71.538,71.538,0,0,1,.36,8.46l-55.99-.12A74.344,74.344,0,0,1,1079.37,81.815Zm122.38,86.333a163.261,163.261,0,0,0,17.47,1.136,68.451,68.451,0,0,0,24.88-4.306q11.13-4.308,16.63-11.963a27.894,27.894,0,0,0,5.5-16.629,31.094,31.094,0,0,0-1.91-10.647,36.205,36.205,0,0,0-5.5-9.869,58.721,58.721,0,0,0-9.16-9.152q-5.55-4.545-12.98-10.168-7.41-5.622-9.75-7.537a30.479,30.479,0,0,1-4.12-4.067,13.881,13.881,0,0,1-2.51-4.127,11.609,11.609,0,0,1-.72-4.008,9.714,9.714,0,0,1,2.27-6.281c1.51-1.873,4.01-3.269,7.48-4.187a47.81,47.81,0,0,1,12.14-1.376,71.012,71.012,0,0,1,26.68,5.623l-1.56-25a205.57,205.57,0,0,0-36.13-3.709q-13.755,0-23.92,3.649t-15.49,11.544a28.694,28.694,0,0,0-3.59,26.5,33.728,33.728,0,0,0,5.08,9.211,56.2,56.2,0,0,0,8.26,8.554q4.9,4.19,14.23,11.484l6.46,5.144q3.345,2.513,5.15,4.128a26.945,26.945,0,0,1,2.81,2.871,18.231,18.231,0,0,1,1.79,2.691,10.869,10.869,0,0,1,1.08,2.752,12.923,12.923,0,0,1,.3,2.871,11.2,11.2,0,0,1-2.28,6.639,13.684,13.684,0,0,1-6.93,4.785,35.42,35.42,0,0,1-11.49,1.615,67.559,67.559,0,0,1-14.95-1.854,131.614,131.614,0,0,1-19.86-6.639l2.63,26.318A172.93,172.93,0,0,0,1201.75,168.148Z"/>
  <path id="Ou_ckRates_copia" data-name="Ou ckRates copia" class="cls-4" d="M1241.47,64.968a47.81,47.81,0,0,0-12.14,1.376c-3.47.918-5.97,2.314-7.48,4.187a9.714,9.714,0,0,0-2.27,6.281,11.609,11.609,0,0,0,.72,4.008,13.881,13.881,0,0,0,2.51,4.127,30.479,30.479,0,0,0,4.12,4.067q2.34,1.915,9.75,7.537t12.98,10.168a58.721,58.721,0,0,1,9.16,9.152,36.205,36.205,0,0,1,5.5,9.869,31.094,31.094,0,0,1,1.91,10.647,27.894,27.894,0,0,1-5.5,16.629q-5.505,7.656-16.63,11.963a68.451,68.451,0,0,1-24.88,4.306,163.261,163.261,0,0,1-17.47-1.136,172.93,172.93,0,0,1-22.01-4.008l-2.63-26.318a131.614,131.614,0,0,0,19.86,6.639,67.559,67.559,0,0,0,14.95,1.854,35.42,35.42,0,0,0,11.49-1.615,13.684,13.684,0,0,0,6.93-4.785,11.2,11.2,0,0,0,2.28-6.639,12.923,12.923,0,0,0-.3-2.871,10.869,10.869,0,0,0-1.08-2.752,18.231,18.231,0,0,0-1.79-2.691,26.945,26.945,0,0,0-2.81-2.871q-1.8-1.615-5.15-4.128l-6.46-5.144q-9.33-7.294-14.23-11.484a56.2,56.2,0,0,1-8.26-8.553,33.728,33.728,0,0,1-5.08-9.211,28.694,28.694,0,0,1,3.59-26.5q5.31-7.9,15.49-11.544t23.92-3.649a205.57,205.57,0,0,1,36.13,3.709l1.56,25A71.012,71.012,0,0,0,1241.47,64.968Zm-165.45,39.956q-0.24,4.426-.24,7.058a38.256,38.256,0,0,0,2.76,14.714,30.3,30.3,0,0,0,8.01,11.365,33.2,33.2,0,0,0,12.56,6.879,49.257,49.257,0,0,0,14.36,2.213,97.956,97.956,0,0,0,17.88-1.795,187.365,187.365,0,0,0,22.91-6.1q-1.56,7.06-4.43,25.362-12.915,2.749-21.77,3.708a165.634,165.634,0,0,1-17.82.957,115.763,115.763,0,0,1-28.06-3.106,50.721,50.721,0,0,1-21.71-11.416,49.735,49.735,0,0,1-13.76-20.376,73.032,73.032,0,0,1-4.42-25.339,80.98,80.98,0,0,1,5.14-28.5,58.839,58.839,0,0,1,14.42-22.589,53.081,53.081,0,0,1,21.11-12.43,83.727,83.727,0,0,1,24.76-3.645,86.666,86.666,0,0,1,23.21,3.045,43.959,43.959,0,0,1,18.49,9.97,46.6,46.6,0,0,1,11.48,16.657,56.449,56.449,0,0,1,4.01,21.671,58.706,58.706,0,0,1-1.2,11.581Zm56.59-22.337a30.761,30.761,0,0,0-1.62-6.254,20.92,20.92,0,0,0-3.41-6.194,19.866,19.866,0,0,0-5.02-4.467,23.41,23.41,0,0,0-6.64-2.74,32.817,32.817,0,0,0-8.08-.953,31.126,31.126,0,0,0-9.75,1.55,29.574,29.574,0,0,0-8.67,4.527,27.267,27.267,0,0,0-6.4,6.671,32.823,32.823,0,0,0-3.65,7.09,74.344,74.344,0,0,0-2.39,9.112l55.99,0.12A71.538,71.538,0,0,0,1132.61,82.587ZM1029.97,69.035H999.459q-2.519,48.691-2.516,56.345,0,7.419,1.615,11.485a10.664,10.664,0,0,0,5.2,5.862,16.9,16.9,0,0,0,7.66,1.794,43.541,43.541,0,0,0,6.28-.479q3.285-.476,11.55-2.631-1.44,6.581-4.55,24.4a144.536,144.536,0,0,1-15.79,2.871,104.526,104.526,0,0,1-10.765.6,68.346,68.346,0,0,1-15.851-1.675,25.087,25.087,0,0,1-11.545-5.921,21.41,21.41,0,0,1-6.16-9.929,42.879,42.879,0,0,1-1.615-11.784q0-1.552.119-4.187t0.955-16.987l2.744-49.766H949.575q0.594-7.178,1.075-23.088h18.019q0.712-6.937,1.426-23.567l14.143-2.751q4.432-.835,17.132-3.948-0.855,16.15-.98,30.266h30.41Q1029.96,62.1,1029.97,69.035ZM924.72,166.413q-9.1-.239-16.761-0.239-7.307,0-17.122.239,1.573-14.474,2.541-33.5l1.574-29.788a74.751,74.751,0,0,1-6.945,4.187,42.678,42.678,0,0,1-5.388,2.214q-3,1.017-10.537,3.11t-12.092,3.649a53.879,53.879,0,0,0-8.2,3.529,27.44,27.44,0,0,0-6.167,4.426,15.909,15.909,0,0,0-3.652,5.144,14.738,14.738,0,0,0-1.136,5.8,13.415,13.415,0,0,0,2.93,8.673,15.292,15.292,0,0,0,7.358,5.084,33.813,33.813,0,0,0,10.407,1.436,57.8,57.8,0,0,0,8.075-.6,68.806,68.806,0,0,0,11.425-2.991,207.646,207.646,0,0,0-5.862,20.337q-8.5,1.435-13.518,1.794t-9.331.359q-15.073,0-24.763-4.067a27.528,27.528,0,0,1-14.3-12.92,38.274,38.274,0,0,1-4.606-17.825,30.021,30.021,0,0,1,1.795-10.168,30.332,30.332,0,0,1,5.267-9.212,46.178,46.178,0,0,1,8.978-8.075q5.507-3.885,15.92-7.536a240.06,240.06,0,0,1,27.531-7.357q4.548-.956,9.457-2.333a57.773,57.773,0,0,0,7.841-2.692,17.458,17.458,0,0,0,5.086-3.409,14.276,14.276,0,0,0,3.172-4.367,11.29,11.29,0,0,0,1.019-4.665,11.071,11.071,0,0,0-3.053-7.9,16.166,16.166,0,0,0-7.9-4.486,42.72,42.72,0,0,0-10.716-1.256q-21.787,0-48.126,10.408,1.674-8.613,2.093-12.083t1.5-10.527a278.056,278.056,0,0,1,28.711-5.383,194.116,194.116,0,0,1,24.045-1.555,90.3,90.3,0,0,1,24.165,3.051q11.005,3.051,17.227,9.75t6.22,19.26q0,6.819-1.9,34.752T924.72,166.413ZM790.648,67.779a41.126,41.126,0,0,1-7.237,9.331,42.232,42.232,0,0,1-8.315,6.34,49.609,49.609,0,0,1-9.39,4.008q-5.266,1.677-14.117,4.067l8.135,15.791q3.948,7.537,14.954,27.037l12.082,21.174q0.957,1.677,5.742,10.886-14.635-.239-19.312-0.239-5.76,0-20.274.239L739.66,134.592q-3.465-7.3-8.361-17.227L716.848,88.3q-2.149-4.065-5.972-12.2a83.508,83.508,0,0,0,14.606,1.436,50.835,50.835,0,0,0,18.8-3.35,26.749,26.749,0,0,0,13.051-10.348,27.442,27.442,0,0,0,4.549-15.253,22.138,22.138,0,0,0-1.973-9.331,17.257,17.257,0,0,0-6.64-7.3,26.725,26.725,0,0,0-11.125-3.828,100.624,100.624,0,0,0-12.92-.837q-3.59,0-9.81.12t-15.312.12L701.96,76.691l-2.254,89.722-18.561-.239q-4.431,0-18.081.239,3.606-35.648,5.411-81.946t1.8-81.348q14.351,0.241,24.038.239,10.406,0,20.391-.359t21.109-.359A177.958,177.958,0,0,1,760.631,4.2a46.581,46.581,0,0,1,19.434,7.178,36.342,36.342,0,0,1,12.617,13.638,40.233,40.233,0,0,1,4.127,18.662,50.993,50.993,0,0,1-1.555,12.74A45.628,45.628,0,0,1,790.648,67.779Z"/>
</svg>
